# xmcd
#
# Track frame offsets: 
#        183
#        10218
#        21295
#        33938
#        47138
#        54478
#        69558
#        80813
#        89810
#        102530
#        112395
#        121833
#        135425
#        146505
#        159198
#        169728
#        177890
#        189935
#        198055
#        212840
#        218425
#        227918
#        236555
#        247618
#        258628
#
# Disc length: 3593 seconds
#
# Revision: 0
# Processed by: cddbd v1.4PL0 Copyright (c) Steve Scherf et al.
# Submitted via: ExactAudioCopy v0.95a3
#
DISCID=5b0e0719
DTITLE=Country - Country
DYEAR=1990
DGENRE=Country
TTITLE0=Hey Porter
TTITLE1=Once A Day
TTITLE2=I Just Don't Understand
TTITLE3=Too Many Memories
TTITLE4=Mary Don't You Weep
TTITLE5=I Don't Want To Fall In Love Again
TTITLE6=You Comb Her Hair
TTITLE7=Jonsey
TTITLE8=Georgia In A Jug
TTITLE9=Realeased Me
TTITLE10=I Can't Help It
TTITLE11=Lonesome Road
TTITLE12=Once A Day
TTITLE13=Julie Loved Boston
TTITLE14=Gotta Lot Of Rhythm
TTITLE15=Sugartime
TTITLE16=Two Little Orphans
TTITLE17=Hey Mr Blue Bird
TTITLE18=And So Will You My Love
TTITLE19=Liberty
TTITLE20=I'm Moving Along
TTITLE21=Blues Is The Way I Feel
TTITLE22=Let The Sun Shine
TTITLE23=Song And Dance Man
TTITLE24=Oh Lonesome Me
EXTD=
EXTT0=
EXTT1=
EXTT2=
EXTT3=
EXTT4=
EXTT5=
EXTT6=
EXTT7=
EXTT8=
EXTT9=
EXTT10=
EXTT11=
EXTT12=
EXTT13=
EXTT14=
EXTT15=
EXTT16=
EXTT17=
EXTT18=
EXTT19=
EXTT20=
EXTT21=
EXTT22=
EXTT23=
EXTT24=
PLAYORDER=
